<svg width="51" height="45" viewBox="0 0 51 45" fill="none" xmlns="http://www.w3.org/2000/svg">
<path d="M49.2188 39.375H42.1875V4.46045C42.1875 1.99951 40.2979 0 37.9688 0H12.6563C10.3271 0 8.4375 1.99951 8.4375 4.46045V39.375H1.40625C0.626221 39.375 0 39.999 0 40.7812V43.5938C0 44.376 0.626221 45 1.40625 45H49.2188C49.9988 45 50.625 44.3738 50.625 43.5938V40.7812C50.625 39.999 50.001 39.375 49.2188 39.375ZM33.75 25.3125C32.2014 25.3125 30.9375 24.0486 30.9375 22.5C30.9375 20.9514 32.2014 19.6875 33.75 19.6875C35.2986 19.6875 36.5625 20.9514 36.5625 22.5C36.5625 24.0486 35.2969 25.3125 33.75 25.3125Z" fill="black"/>
</svg>
