<svg width="20" height="18" viewBox="0 0 20 18" fill="none" xmlns="http://www.w3.org/2000/svg">
<path d="M19.2858 9C19.2858 9.69102 18.6461 10.2504 17.8572 10.2504H11.4286V15.8754C11.4286 16.5664 10.7889 17.125 10.0001 17.125C9.21123 17.125 8.5715 16.5664 8.5715 15.8754V10.2504H2.14293C1.35409 10.2504 0.714355 9.69102 0.714355 9C0.714355 8.30898 1.35409 7.75039 2.14293 7.75039H8.5715V2.12539C8.5715 1.43438 9.21123 0.875 10.0001 0.875C10.7889 0.875 11.4286 1.43438 11.4286 2.12539V7.75039H17.8572C18.6474 7.75 19.2858 8.30859 19.2858 9Z" fill="#352D94"/>
</svg>
