<svg width="20" height="16" viewBox="0 0 20 16" fill="none" xmlns="http://www.w3.org/2000/svg">
<path d="M15.5 7C13.0125 7 11 9.0125 11 11.5C11 13.9875 13.0119 16 15.5 16C17.9881 16 20 13.9881 20 11.5C20 9.01187 17.9875 7 15.5 7ZM17 12H15.3047C15.1375 12 15 11.8625 15 11.6969V9.5C15 9.225 15.225 9 15.5 9C15.775 9 16 9.225 16 9.5V11H17C17.2762 11 17.5 11.2238 17.5 11.5C17.5 11.775 17.275 12 17 12ZM10.0031 11H6.5C6.225 11 6 10.775 6 10.5V9H0V13.5C0 14.3 0.700312 15 1.5 15H11.2563C10.4719 14.05 10 12.8281 10 11.5C10 11.3312 10.0156 11.1656 10.0031 11ZM15.5 6C15.6688 6 15.835 6.01031 16 6.02521V4.5C16 3.7 15.3 3 14.5 3H12V1.5C12 0.700312 11.3 0 10.5 0H5.5C4.7 0 4 0.700312 4 1.5V3H1.5C0.700312 3 0 3.7 0 4.5V8H11.2563C12.2656 6.77812 13.7906 6 15.5 6ZM10.5 3H5.5V1.5H10.5V3Z" fill="#AAAAAA"/>
</svg>
