<svg width="53" height="40" viewBox="0 0 53 40" fill="none" xmlns="http://www.w3.org/2000/svg">
<path d="M39.7484 15.4813H49.023C51.2174 15.4813 52.9978 17.1287 52.9978 19.1591V36.3222C52.9978 38.3526 51.2174 40 49.023 40H3.97484C1.77957 40 0 38.3526 0 36.3222V11.8035C0 9.77308 1.77957 8.12574 3.97484 8.12574H5.29978V2.60904C5.29978 1.59381 6.18998 0.770142 7.2872 0.770142C8.38856 0.770142 9.27462 1.59381 9.27462 2.60904V8.12574H14.5744V2.60904C14.5744 1.59381 15.4605 0.770142 16.5618 0.770142C17.6632 0.770142 18.5492 1.59381 18.5492 2.60904V8.12574H23.849V4.44794C23.849 2.41672 25.6294 0.770142 27.8239 0.770142H35.7735C37.968 0.770142 39.7484 2.41672 39.7484 4.44794V15.4813ZM47.6981 28.9666C47.6981 28.2923 47.1018 27.7407 46.3731 27.7407H43.7232C42.9945 27.7407 42.3983 28.2923 42.3983 28.9666V31.4185C42.3983 32.0927 42.9945 32.6444 43.7232 32.6444H46.3731C47.1018 32.6444 47.6981 32.0927 47.6981 31.4185V28.9666ZM19.8742 32.6444C20.6029 32.6444 21.1991 32.0927 21.1991 31.4185V28.9666C21.1991 28.2923 20.6029 27.7407 19.8742 27.7407H17.2243C16.4956 27.7407 15.8994 28.2923 15.8994 28.9666V31.4185C15.8994 32.0927 16.4956 32.6444 17.2243 32.6444H19.8742ZM10.5996 28.9666C10.5996 28.2923 10.0033 27.7407 9.27462 27.7407H6.62473C5.8927 27.7407 5.29978 28.2923 5.29978 28.9666V31.4185C5.29978 32.0927 5.8927 32.6444 6.62473 32.6444H9.27462C10.0033 32.6444 10.5996 32.0927 10.5996 31.4185V28.9666ZM43.7232 20.3851C42.9945 20.3851 42.3983 20.9367 42.3983 21.611V24.0629C42.3983 24.7371 42.9945 25.2888 43.7232 25.2888H46.3731C47.1018 25.2888 47.6981 24.7371 47.6981 24.0629V21.611C47.6981 20.9367 47.1018 20.3851 46.3731 20.3851H43.7232ZM21.1991 14.2554C21.1991 13.5811 20.6029 13.0295 19.8742 13.0295H17.2243C16.4956 13.0295 15.8994 13.5811 15.8994 14.2554V16.7073C15.8994 17.3815 16.4956 17.9332 17.2243 17.9332H19.8742C20.6029 17.9332 21.1991 17.3815 21.1991 16.7073V14.2554ZM6.62473 13.0295C5.8927 13.0295 5.29978 13.5811 5.29978 14.2554V16.7073C5.29978 17.3815 5.8927 17.9332 6.62473 17.9332H9.27462C10.0033 17.9332 10.5996 17.3815 10.5996 16.7073V14.2554C10.5996 13.5811 10.0033 13.0295 9.27462 13.0295H6.62473ZM21.1991 21.611C21.1991 20.9367 20.6029 20.3851 19.8742 20.3851H17.2243C16.4956 20.3851 15.8994 20.9367 15.8994 21.611V24.0629C15.8994 24.7371 16.4956 25.2888 17.2243 25.2888H19.8742C20.6029 25.2888 21.1991 24.7371 21.1991 24.0629V21.611ZM9.27462 25.2888C10.0033 25.2888 10.5996 24.7371 10.5996 24.0629V21.611C10.5996 20.9367 10.0033 20.3851 9.27462 20.3851H6.62473C5.8927 20.3851 5.29978 20.9367 5.29978 21.611V24.0629C5.29978 24.7371 5.8927 25.2888 6.62473 25.2888H9.27462ZM34.4486 21.611C34.4486 20.9367 33.8524 20.3851 33.1236 20.3851H30.4738C29.745 20.3851 29.1488 20.9367 29.1488 21.611V24.0629C29.1488 24.7371 29.745 25.2888 30.4738 25.2888H33.1236C33.8524 25.2888 34.4486 24.7371 34.4486 24.0629V21.611ZM30.4738 5.67387C29.745 5.67387 29.1488 6.22248 29.1488 6.8998V9.35167C29.1488 10.0259 29.745 10.5776 30.4738 10.5776H33.1236C33.8524 10.5776 34.4486 10.0259 34.4486 9.35167V6.8998C34.4486 6.22248 33.8524 5.67387 33.1236 5.67387H30.4738ZM34.4486 14.2554C34.4486 13.5811 33.8524 13.0295 33.1236 13.0295H30.4738C29.745 13.0295 29.1488 13.5811 29.1488 14.2554V16.7073C29.1488 17.3815 29.745 17.9332 30.4738 17.9332H33.1236C33.8524 17.9332 34.4486 17.3815 34.4486 16.7073V14.2554Z" fill="black"/>
</svg>
