<svg width="20" height="20" viewBox="0 0 20 20" fill="none" xmlns="http://www.w3.org/2000/svg">
<path d="M16.0703 6.85547C16.3047 7.24219 16.3086 7.72266 16.0859 8.11719C15.8672 8.50781 15.4492 8.71484 15 8.71484H7.5C7.05078 8.71484 6.63281 8.50781 6.41406 8.11719C6.19141 7.72266 6.19531 7.24219 6.42969 6.85547L10.1797 0.607031C10.4023 0.230352 10.8125 0 11.25 0C11.6875 0 12.0977 0.230391 12.3203 0.607031L16.0703 6.85547ZM11.25 12.1875C11.25 11.3242 11.9492 10.625 12.8125 10.625H18.4375C19.3008 10.625 20 11.3242 20 12.1875V17.8125C20 18.6758 19.3008 19.375 18.4375 19.375H12.8125C11.9492 19.375 11.25 18.6758 11.25 17.8125V12.1875ZM0 15C0 12.2383 2.23867 10 5 10C7.76172 10 10 12.2383 10 15C10 17.7617 7.76172 20 5 20C2.23867 20 0 17.7617 0 15Z" fill="#AAAAAA"/>
</svg>
