<svg width="49" height="43" viewBox="0 0 49 43" fill="none" xmlns="http://www.w3.org/2000/svg">
<path d="M48.3582 21.458C48.3582 22.9697 47.0984 24.1539 45.6707 24.1539H42.9832L43.042 37.5998C43.0504 40.5812 40.64 43 37.667 43H10.7584C7.78955 43 5.38256 40.5896 5.38256 37.625V24.1539H2.6917C1.17746 24.1539 0 22.9697 0 21.458C0 20.7021 0.252289 20.0303 0.840684 19.4424L22.3734 0.673219C22.9613 0.0841523 23.6332 0 24.2211 0C24.809 0 25.4809 0.168305 25.9932 0.589066L47.4344 19.4424C48.1062 20.0303 48.4506 20.7021 48.3582 21.458ZM24.1875 13.4375C21.2228 13.4375 18.8125 15.8479 18.8125 18.8125C18.8125 21.7771 21.2228 24.1875 24.1875 24.1875C27.1521 24.1875 29.5625 21.7771 29.5625 18.8125C29.5625 15.8479 27.1521 13.4375 24.1875 13.4375ZM21.5 26.875C17.7879 26.875 14.7812 29.8816 14.7812 33.5938C14.7812 34.3328 15.3859 34.9375 16.125 34.9375H32.25C32.9891 34.9375 33.5937 34.3328 33.5937 33.5938C33.5937 29.8816 30.5871 26.875 26.875 26.875H21.5Z" fill="black"/>
</svg>
