<svg width="53" height="40" viewBox="0 0 53 40" fill="none" xmlns="http://www.w3.org/2000/svg">
<path d="M26.4989 9.94465C27.2276 9.94465 27.8239 10.4963 27.8239 11.1706V12.3965H29.1488C29.8775 12.3965 30.4738 12.9482 30.4738 13.6224C30.4738 14.2967 29.8775 14.8484 29.1488 14.8484H26.4989C25.7702 14.8484 25.174 14.2967 25.174 13.6224V11.1706C25.174 10.4963 25.7702 9.94465 26.4989 9.94465ZM39.4834 7.65062L49.8842 9.72245C51.706 10.1668 52.9978 11.6533 52.9978 13.3773V35.6892C52.9978 37.7197 51.2174 39.367 49.023 39.367H3.97484C1.77957 39.367 0 37.7197 0 35.6892V13.3773C0 11.6533 1.29431 10.1668 3.11279 9.72245L13.5144 7.65062L25.0249 0.548948C25.8447 -3.99649e-05 27.0786 -3.99649e-05 27.9729 0.548948L39.4834 7.65062ZM21.1991 39.367H31.7987V32.0114C31.7987 29.3067 29.4221 27.1077 26.4989 27.1077C23.5758 27.1077 21.1991 29.3067 21.1991 32.0114V39.367ZM7.94968 14.8484C7.21764 14.8484 6.62473 15.4 6.62473 16.0743V20.978C6.62473 21.6523 7.21764 22.204 7.94968 22.204H10.5996C11.3283 22.204 11.9245 21.6523 11.9245 20.978V16.0743C11.9245 15.4 11.3283 14.8484 10.5996 14.8484H7.94968ZM41.0733 20.978C41.0733 21.6523 41.6695 22.204 42.3983 22.204H45.0482C45.7769 22.204 46.3731 21.6523 46.3731 20.978V16.0743C46.3731 15.4 45.7769 14.8484 45.0482 14.8484H42.3983C41.6695 14.8484 41.0733 15.4 41.0733 16.0743V20.978ZM7.94968 24.6558C7.21764 24.6558 6.62473 25.2075 6.62473 25.8818V30.7855C6.62473 31.4598 7.21764 32.0114 7.94968 32.0114H10.5996C11.3283 32.0114 11.9245 31.4598 11.9245 30.7855V25.8818C11.9245 25.2075 11.3283 24.6558 10.5996 24.6558H7.94968ZM41.0733 30.7855C41.0733 31.4598 41.6695 32.0114 42.3983 32.0114H45.0482C45.7769 32.0114 46.3731 31.4598 46.3731 30.7855V25.8818C46.3731 25.2075 45.7769 24.6558 45.0482 24.6558H42.3983C41.6695 24.6558 41.0733 25.2075 41.0733 25.8818V30.7855ZM26.4989 6.87982C22.4744 6.87982 19.2117 9.89868 19.2117 13.6224C19.2117 17.3462 22.4744 20.3651 26.4989 20.3651C30.5234 20.3651 33.7861 17.3462 33.7861 13.6224C33.7861 9.89868 30.5234 6.87982 26.4989 6.87982Z" fill="black"/>
</svg>
