<svg width="42" height="29" viewBox="0 0 42 29" fill="none" xmlns="http://www.w3.org/2000/svg">
<path d="M21 21.9257C19.644 21.9257 18.288 21.5264 17.1314 20.7171L0 8.7567V25.4611C0 27.4128 1.76285 28.9964 3.9375 28.9964H38.0625C40.2371 28.9964 42 27.4136 42 25.4611V8.7567L24.8719 20.7252C23.7152 21.528 22.3535 21.9257 21 21.9257ZM1.33629 6.7018L18.7433 18.8618C20.0714 19.7898 21.9319 19.7898 23.26 18.8618L40.667 6.7018C41.434 6.11258 42 5.20666 42 4.24918C42 2.29666 40.2363 0.713867 38.0625 0.713867H3.9375C1.76285 0.713867 0 2.29666 0 4.24918C0 5.20666 0.493008 6.11258 1.33629 6.7018Z" fill="#B3B3B5"/>
</svg>
