<svg width="33" height="38" viewBox="0 0 33 38" fill="none" xmlns="http://www.w3.org/2000/svg">
<path d="M18.8561 2.35701V3.77122C24.233 4.86355 28.2841 9.61956 28.2841 15.3206V16.7053C28.2841 20.1746 29.5584 23.5112 31.8565 26.1039L32.4015 26.7153C33.0203 27.415 33.1749 28.402 32.7919 29.2491C32.4089 30.0961 31.5692 30.6412 30.6411 30.6412H2.35699C1.42892 30.6412 0.587099 30.0961 0.206884 29.2491C-0.173332 28.402 -0.0212529 27.415 0.595423 26.7153L1.14166 26.1039C3.44269 23.5112 4.71401 20.1746 4.71401 16.7053V15.3206C4.71401 9.61956 8.69883 4.86355 14.1421 3.77122V2.35701C14.1421 1.0555 15.1953 0 16.4991 0C17.8028 0 18.8561 1.0555 18.8561 2.35701ZM16.4991 37.7122C15.2469 37.7122 14.0463 37.2187 13.1624 36.3348C12.2785 35.4509 11.785 34.184 11.785 32.9982H21.2131C21.2131 34.184 20.7196 35.4509 19.8357 36.3348C18.9518 37.2187 17.6849 37.7122 16.4991 37.7122Z" fill="#AAAAAA"/>
</svg>
