<svg width="20" height="20" viewBox="0 0 20 20" fill="none" xmlns="http://www.w3.org/2000/svg">
<path d="M18.75 7.01565C19.4766 7.3594 20 8.28518 20 9.37503C20 10.4649 19.4766 11.3907 18.75 11.7344V17.5C18.75 18.0039 18.4453 18.461 17.9766 18.6563C17.5117 18.8477 16.9727 18.7422 16.6172 18.3828L14.9102 16.6446C13.0352 14.7696 10.4922 13.75 7.83984 13.75H7.5V18.75C7.5 19.4414 6.94141 20 6.25 20H3.75C3.05977 20 2.5 19.4414 2.5 18.75V13.75C1.11914 13.75 0 12.6289 0 11.25V7.50003C0 6.12112 1.11914 5.00003 2.5 5.00003H7.83984C10.4922 5.00003 13.0352 3.94534 14.9102 2.07112L16.6172 0.366159C16.9727 0.00867837 17.5117 -0.0982553 17.9766 0.0952213C18.4453 0.288698 18.75 0.744557 18.75 1.25003V7.01565ZM7.83984 7.50003H7.5V11.25H7.83984C10.957 11.25 13.9531 12.4141 16.25 14.5039V4.24612C13.9531 6.33596 10.957 7.50003 7.83984 7.50003Z" fill="#AAAAAA"/>
</svg>
