<svg width="35" height="40" viewBox="0 0 35 40" fill="none" xmlns="http://www.w3.org/2000/svg">
<path d="M6.11607 14.6786V11.0089C6.11607 4.92879 11.0472 0 17.125 0C23.2028 0 28.1339 4.92879 28.1339 11.0089V14.6786H29.3571C32.0559 14.6786 34.25 16.8727 34.25 19.5714V34.25C34.25 36.9487 32.0559 39.1429 29.3571 39.1429H4.89286C2.19032 39.1429 0 36.9487 0 34.25V19.5714C0 16.8727 2.19032 14.6786 4.89286 14.6786H6.11607ZM11.0089 14.6786H23.2411V11.0089C23.2411 7.63133 20.5041 4.89286 17.125 4.89286C13.7459 4.89286 11.0089 7.63133 11.0089 11.0089V14.6786Z" fill="black"/>
</svg>
