<svg width="53" height="40" viewBox="0 0 53 40" fill="none" xmlns="http://www.w3.org/2000/svg">
<path d="M22.7477 23.9621H14.3508C6.42682 23.9621 0 29.9078 0 37.2404C0 38.7116 1.2852 39.8992 2.87016 39.8992H34.225C35.8149 39.8992 37.0985 38.7116 37.0985 37.2404C37.0985 29.9078 30.6725 23.9621 22.7477 23.9621ZM18.5492 20.2843C24.4038 20.2843 29.1488 15.8931 29.1488 10.4768C29.1488 5.06048 24.4038 0.669342 18.5492 0.669342C12.6946 0.669342 7.94967 5.06048 7.94967 10.4768C7.94967 15.8931 12.6946 20.2843 18.5492 20.2843ZM52.3602 10.9672C51.5567 10.2776 50.2974 10.3195 49.5513 11.0642L42.3428 18.2474L39.1637 15.3059C38.3874 14.5876 37.13 14.5876 36.3532 15.3059C35.5765 16.0242 35.5769 17.1877 36.3532 17.9064L40.9905 22.1972C41.3632 22.5446 41.8683 22.7361 42.3983 22.7361H42.4345C42.9753 22.7265 43.4878 22.5146 43.8555 22.1483L52.4676 13.5668C53.2131 12.8214 53.1634 11.6568 52.3602 10.9672Z" fill="black"/>
</svg>
